<svg width="111" height="26" viewBox="0 0 111 26" fill="none" xmlns="http://www.w3.org/2000/svg">
<path d="M12.504 25.384C10.7973 25.384 9.21867 25.0747 7.768 24.456C6.33867 23.8373 5.08 22.9733 3.992 21.864C2.92533 20.7547 2.09333 19.4533 1.496 17.96C0.898667 16.4667 0.6 14.8347 0.6 13.064C0.6 11.2933 0.888 9.66133 1.464 8.168C2.06133 6.65333 2.89333 5.352 3.96 4.264C5.048 3.15467 6.31733 2.30133 7.768 1.704C9.21867 1.08533 10.7973 0.775999 12.504 0.775999C14.2107 0.775999 15.736 1.064 17.08 1.64C18.4453 2.216 19.5973 2.984 20.536 3.944C21.4747 4.88267 22.1467 5.91733 22.552 7.048L18.648 8.872C18.2 7.67733 17.4427 6.696 16.376 5.928C15.3093 5.13867 14.0187 4.744 12.504 4.744C11.0107 4.744 9.688 5.096 8.536 5.8C7.40533 6.504 6.52 7.47467 5.88 8.712C5.26133 9.94933 4.952 11.4 4.952 13.064C4.952 14.728 5.26133 16.1893 5.88 17.448C6.52 18.6853 7.40533 19.656 8.536 20.36C9.688 21.064 11.0107 21.416 12.504 21.416C14.0187 21.416 15.3093 21.032 16.376 20.264C17.4427 19.4747 18.2 18.4827 18.648 17.288L22.552 19.112C22.1467 20.2427 21.4747 21.288 20.536 22.248C19.5973 23.1867 18.4453 23.944 17.08 24.52C15.736 25.096 14.2107 25.384 12.504 25.384ZM32.0128 25.384C30.3061 25.384 28.7488 24.9893 27.3408 24.2C25.9541 23.4107 24.8448 22.3333 24.0128 20.968C23.2021 19.6027 22.7967 18.0453 22.7967 16.296C22.7967 14.5467 23.2021 12.9893 24.0128 11.624C24.8448 10.2587 25.9541 9.18133 27.3408 8.392C28.7274 7.60266 30.2848 7.208 32.0128 7.208C33.7194 7.208 35.2661 7.60266 36.6528 8.392C38.0394 9.18133 39.1381 10.2587 39.9488 11.624C40.7808 12.968 41.1968 14.5253 41.1968 16.296C41.1968 18.0453 40.7808 19.6027 39.9488 20.968C39.1168 22.3333 38.0074 23.4107 36.6208 24.2C35.2341 24.9893 33.6981 25.384 32.0128 25.384ZM32.0128 21.544C32.9514 21.544 33.7728 21.32 34.4768 20.872C35.2021 20.424 35.7674 19.8053 36.1728 19.016C36.5994 18.2053 36.8128 17.2987 36.8128 16.296C36.8128 15.272 36.5994 14.376 36.1728 13.608C35.7674 12.8187 35.2021 12.2 34.4768 11.752C33.7728 11.2827 32.9514 11.048 32.0128 11.048C31.0528 11.048 30.2101 11.2827 29.4848 11.752C28.7594 12.2 28.1834 12.8187 27.7568 13.608C27.3514 14.376 27.1488 15.272 27.1488 16.296C27.1488 17.2987 27.3514 18.2053 27.7568 19.016C28.1834 19.8053 28.7594 20.424 29.4848 20.872C30.2101 21.32 31.0528 21.544 32.0128 21.544ZM42.4557 25V7.592H46.3918V11.016L46.0718 10.408C46.4771 9.36267 47.1384 8.57333 48.0558 8.04C48.9944 7.48533 50.0824 7.208 51.3198 7.208C52.5998 7.208 53.7304 7.48533 54.7118 8.04C55.7144 8.59467 56.4931 9.37333 57.0478 10.376C57.6024 11.3573 57.8798 12.4987 57.8798 13.8V25H53.6878V14.792C53.6878 14.024 53.5384 13.3627 53.2398 12.808C52.9411 12.2533 52.5251 11.8267 51.9918 11.528C51.4798 11.208 50.8718 11.048 50.1678 11.048C49.4851 11.048 48.8771 11.208 48.3438 11.528C47.8104 11.8267 47.3944 12.2533 47.0958 12.808C46.7971 13.3627 46.6477 14.024 46.6477 14.792V25H42.4557ZM61.5205 25V11.336H58.4485V7.592H61.5205V7.016C61.5205 5.69333 61.7872 4.57333 62.3205 3.656C62.8752 2.71733 63.6432 2.00267 64.6245 1.512C65.6058 1.02133 66.7685 0.775999 68.1125 0.775999C68.3685 0.775999 68.6458 0.797332 68.9445 0.839998C69.2645 0.861333 69.5312 0.893333 69.7445 0.935999V4.552C69.5312 4.50933 69.3285 4.488 69.1365 4.488C68.9658 4.46667 68.8058 4.456 68.6565 4.456C67.7178 4.456 66.9925 4.66933 66.4805 5.096C65.9685 5.50133 65.7125 6.14133 65.7125 7.016V7.592H73.3285V11.336H65.7125V25H61.5205ZM71.7605 25V7.592H75.9845V25H71.7605ZM85.8092 25.384C84.0173 25.384 82.4493 24.9787 81.1052 24.168C79.7612 23.3573 78.7159 22.2587 77.9692 20.872C77.2226 19.4853 76.8492 17.9493 76.8492 16.264C76.8492 14.5147 77.2226 12.968 77.9692 11.624C78.7372 10.2587 79.7719 9.18133 81.0732 8.392C82.3959 7.60266 83.8679 7.208 85.4893 7.208C86.8546 7.208 88.0493 7.432 89.0733 7.88C90.1186 8.328 91.0039 8.94667 91.7292 9.736C92.4546 10.5253 93.0093 11.432 93.3933 12.456C93.7773 13.4587 93.9692 14.5467 93.9692 15.72C93.9692 16.0187 93.9479 16.328 93.9053 16.648C93.8839 16.968 93.8306 17.2453 93.7453 17.48H80.3052V14.28H91.3773L89.3933 15.784C89.5853 14.8027 89.5319 13.928 89.2333 13.16C88.9559 12.392 88.4866 11.784 87.8253 11.336C87.1853 10.888 86.4066 10.664 85.4893 10.664C84.6146 10.664 83.8359 10.888 83.1533 11.336C82.4706 11.7627 81.9479 12.4027 81.5852 13.256C81.2439 14.088 81.1159 15.1013 81.2013 16.296C81.1159 17.3627 81.2546 18.312 81.6172 19.144C82.0013 19.9547 82.5559 20.584 83.2812 21.032C84.0279 21.48 84.8813 21.704 85.8413 21.704C86.8013 21.704 87.6119 21.5013 88.2733 21.096C88.9559 20.6907 89.4893 20.1467 89.8733 19.464L93.2653 21.128C92.9239 21.96 92.3906 22.696 91.6653 23.336C90.9399 23.976 90.0759 24.4773 89.0733 24.84C88.0919 25.2027 87.0039 25.384 85.8092 25.384ZM95.227 25V7.592H99.163V11.464L98.843 10.888C99.2483 9.58667 99.8777 8.68 100.731 8.168C101.606 7.656 102.651 7.4 103.867 7.4H104.891V11.112H103.387C102.192 11.112 101.232 11.4853 100.507 12.232C99.7817 12.9573 99.419 13.9813 99.419 15.304V25H95.227ZM105.979 25V20.52H110.203V25H105.979Z" fill="url(#paint0_linear_1692_35)"/>
<defs>
<linearGradient id="paint0_linear_1692_35" x1="57" y1="-12" x2="57" y2="24" gradientUnits="userSpaceOnUse">
<stop/>
<stop offset="1" stop-color="#666666"/>
</linearGradient>
</defs>
</svg>
