<svg width="439" height="99" viewBox="0 0 439 99" fill="none" xmlns="http://www.w3.org/2000/svg">
<path d="M48.016 98.536C41.1893 98.536 34.8747 97.2987 29.072 94.824C23.3547 92.3493 18.32 88.8933 13.968 84.456C9.70133 80.0187 6.37333 74.8133 3.984 68.84C1.59467 62.8667 0.4 56.3387 0.4 49.256C0.4 42.1733 1.552 35.6453 3.856 29.672C6.24533 23.6133 9.57333 18.408 13.84 14.056C18.192 9.61866 23.2693 6.20533 29.072 3.81599C34.8747 1.34133 41.1893 0.103996 48.016 0.103996C54.8427 0.103996 60.944 1.256 66.32 3.56C71.7813 5.864 76.3893 8.936 80.144 12.776C83.8987 16.5307 86.5867 20.6693 88.208 25.192L72.592 32.488C70.8 27.7093 67.7707 23.784 63.504 20.712C59.2373 17.5547 54.0747 15.976 48.016 15.976C42.0427 15.976 36.752 17.384 32.144 20.2C27.6213 23.016 24.08 26.8987 21.52 31.848C19.0453 36.7973 17.808 42.6 17.808 49.256C17.808 55.912 19.0453 61.7573 21.52 66.792C24.08 71.7413 27.6213 75.624 32.144 78.44C36.752 81.256 42.0427 82.664 48.016 82.664C54.0747 82.664 59.2373 81.128 63.504 78.056C67.7707 74.8987 70.8 70.9307 72.592 66.152L88.208 73.448C86.5867 77.9707 83.8987 82.152 80.144 85.992C76.3893 89.7467 71.7813 92.776 66.32 95.08C60.944 97.384 54.8427 98.536 48.016 98.536ZM126.051 98.536C119.224 98.536 112.995 96.9573 107.363 93.8C101.816 90.6427 97.379 86.3333 94.051 80.872C90.8083 75.4107 89.187 69.1813 89.187 62.184C89.187 55.1867 90.8083 48.9573 94.051 43.496C97.379 38.0347 101.816 33.7253 107.363 30.568C112.91 27.4107 119.139 25.832 126.051 25.832C132.878 25.832 139.064 27.4107 144.611 30.568C150.158 33.7253 154.552 38.0347 157.795 43.496C161.123 48.872 162.787 55.1013 162.787 62.184C162.787 69.1813 161.123 75.4107 157.795 80.872C154.467 86.3333 150.03 90.6427 144.483 93.8C138.936 96.9573 132.792 98.536 126.051 98.536ZM126.051 83.176C129.806 83.176 133.091 82.28 135.907 80.488C138.808 78.696 141.07 76.2213 142.691 73.064C144.398 69.8213 145.251 66.1947 145.251 62.184C145.251 58.088 144.398 54.504 142.691 51.432C141.07 48.2747 138.808 45.8 135.907 44.008C133.091 42.1307 129.806 41.192 126.051 41.192C122.211 41.192 118.84 42.1307 115.939 44.008C113.038 45.8 110.734 48.2747 109.027 51.432C107.406 54.504 106.595 58.088 106.595 62.184C106.595 66.1947 107.406 69.8213 109.027 73.064C110.734 76.2213 113.038 78.696 115.939 80.488C118.84 82.28 122.211 83.176 126.051 83.176ZM167.823 97V27.368H183.567V41.064L182.287 38.632C183.908 34.4507 186.554 31.2933 190.223 29.16C193.978 26.9413 198.33 25.832 203.279 25.832C208.399 25.832 212.922 26.9413 216.847 29.16C220.858 31.3787 223.972 34.4933 226.191 38.504C228.41 42.4293 229.519 46.9947 229.519 52.2V97H212.751V56.168C212.751 53.096 212.154 50.4507 210.959 48.232C209.764 46.0133 208.1 44.3067 205.967 43.112C203.919 41.832 201.487 41.192 198.671 41.192C195.94 41.192 193.508 41.832 191.375 43.112C189.242 44.3067 187.578 46.0133 186.383 48.232C185.188 50.4507 184.591 53.096 184.591 56.168V97H167.823ZM244.082 97V42.344H231.794V27.368H244.082V25.064C244.082 19.7733 245.149 15.2933 247.282 11.624C249.501 7.86933 252.573 5.01066 256.498 3.048C260.423 1.08533 265.074 0.103996 270.45 0.103996C271.474 0.103996 272.583 0.189329 273.778 0.359993C275.058 0.44533 276.125 0.573331 276.978 0.743996V15.208C276.125 15.0373 275.314 14.952 274.546 14.952C273.863 14.8667 273.223 14.824 272.626 14.824C268.871 14.824 265.97 15.6773 263.922 17.384C261.874 19.0053 260.85 21.5653 260.85 25.064V27.368H291.314V42.344H260.85V97H244.082ZM285.042 97V27.368H301.938V97H285.042ZM341.237 98.536C334.069 98.536 327.797 96.9147 322.421 93.672C317.045 90.4293 312.864 86.0347 309.877 80.488C306.89 74.9413 305.397 68.7973 305.397 62.056C305.397 55.0587 306.89 48.872 309.877 43.496C312.949 38.0347 317.088 33.7253 322.293 30.568C327.584 27.4107 333.472 25.832 339.957 25.832C345.418 25.832 350.197 26.728 354.293 28.52C358.474 30.312 362.016 32.7867 364.917 35.944C367.818 39.1013 370.037 42.728 371.573 46.824C373.109 50.8347 373.877 55.1867 373.877 59.88C373.877 61.0747 373.792 62.312 373.621 63.592C373.536 64.872 373.322 65.9813 372.981 66.92H319.221V54.12H363.509L355.573 60.136C356.341 56.2107 356.128 52.712 354.933 49.64C353.824 46.568 351.946 44.136 349.301 42.344C346.741 40.552 343.626 39.656 339.957 39.656C336.458 39.656 333.344 40.552 330.613 42.344C327.882 44.0507 325.792 46.6107 324.341 50.024C322.976 53.352 322.464 57.4053 322.805 62.184C322.464 66.4507 323.018 70.248 324.469 73.576C326.005 76.8187 328.224 79.336 331.125 81.128C334.112 82.92 337.525 83.816 341.365 83.816C345.205 83.816 348.448 83.0053 351.093 81.384C353.824 79.7627 355.957 77.5867 357.493 74.856L371.061 81.512C369.696 84.84 367.562 87.784 364.661 90.344C361.76 92.904 358.304 94.9093 354.293 96.36C350.368 97.8107 346.016 98.536 341.237 98.536ZM378.908 97V27.368H394.652V42.856L393.372 40.552C394.993 35.3467 397.511 31.72 400.924 29.672C404.423 27.624 408.604 26.6 413.468 26.6H417.564V41.448H411.548C406.769 41.448 402.929 42.9413 400.028 45.928C397.127 48.8293 395.676 52.9253 395.676 58.216V97H378.908ZM421.914 97V79.08H438.81V97H421.914Z" fill="url(#paint0_linear_1907_1459)" style="mix-blend-mode:plus-lighter"/>
<defs>
<linearGradient id="paint0_linear_1907_1459" x1="224.5" y1="-51" x2="224.5" y2="93" gradientUnits="userSpaceOnUse">
<stop stop-color="white"/>
<stop offset="1" stop-color="#E5E5E5"/>
</linearGradient>
</defs>
</svg>
